<svg xmlns="http://www.w3.org/2000/svg" viewBox="0 0 1075.99 442.44"><defs><style>.cls-1{fill:#ee7740;}</style></defs><title>Ativo 9</title><g id="Camada_2" data-name="Camada 2"><g id="Camada_1-2" data-name="Camada 1"><path class="cls-1" d="M1062.87,1.19c-49.34-7.38-91.9,20.42-117.2,61.72C913.73,115,919.32,178.35,908.72,236.25c-8.43,46.06-33,102.9-87.16,105.66-57.3,2.94-99.7-47-132.59-86.82-31.36-37.92-82.33-77.38-133.48-50.48-44.82,23.57-49.38,77.78-62.61,120.86-6.88,22.4-18.73,48.12-44.77,51.55-29.54,3.9-55.32-18.21-73.74-38.48-34.93-38.41-68.2-88.45-126.09-89.62-54.75-1.11-77.69,47.41-96.35,90.26-9.29,21.36-19.44,45.24-40.38,57.62-24.35,14.41-57.76,12.7-79.79-5.31-17.9-14.64-43.68,10.84-25.62,25.61,36.12,29.54,88.62,34.56,128.27,8.09,37.87-25.29,46.34-70.76,67.41-108,11.44-20.24,28.57-35.33,53.38-31.38,29.19,4.65,50.68,28,68.85,49.34,33.21,39,73.58,86.92,131.32,77.43,51.46-8.45,69-60.37,79.44-104.63,5.3-22.48,11.21-50.14,29.68-65.93C590,220.18,624,239.28,644,259s35.07,43.35,55.17,62.77c19.37,18.73,41.65,34.72,66.55,45.17,46.12,19.34,98.36,12.72,133.39-24.69,41.93-44.79,47-107.3,52.84-165.23,3.39-33.62,7.82-69.37,26.58-98.35,15.92-24.61,43.66-47.19,74.74-42.54,22.8,3.41,32.64-31.49,9.63-34.93Z"/></g></g></svg>