<svg xmlns="http://www.w3.org/2000/svg" viewBox="0 0 440.25 599.87"><defs><style>.cls-1{fill:#e7405f;}</style></defs><title>Ativo 11</title><g id="Camada_2" data-name="Camada 2"><g id="Camada_1-2" data-name="Camada 1"><path class="cls-1" d="M399.77,446.24a97.45,97.45,0,0,1-5.6,9c-53.91,83.41-162.8,130-259.59,100.22-49.9-15.36-121.91-65.89-93.12-126.59,31.78-67,120.53-60,181.44-54.73,20.89,1.81,23.79-29.94,4.82-35.57-48.81-14.5-94.25-56.07-102.45-108.16-4.25-27,7.11-52.4,37.2-53.5,30.64-1.13,56,21.52,77.72,40.19,15.05,12.95,39.26-3.32,28.44-21.94-25.12-43.25-34.83-102.29,5-140.38,15.62-14.95,38-24.17,59.55-18.1,23.66,6.66,41.45,27.15,40.78,52.07-.63,23.32,35.59,23.3,36.22,0,2-74.95-86.95-112.07-145.39-73.07-67.6,45.12-64.46,133.94-27.39,197.76l28.44-22C234.86,164.9,200,137.32,156.7,141.08c-37,3.21-63.68,29.66-67.92,66.3-8.91,76.94,60.87,145.81,129.31,166.13q2.4-17.79,4.81-35.57c-63.59-5.51-132.4-8.19-183.75,36.17-44.54,38.48-52.18,99.46-17.24,147C86.72,609.31,215.05,617.3,308,575.29c52.86-23.88,97.67-64.53,125.59-115.43,11.21-20.45,7.12-80.1-4.1-59.63Z"/></g></g></svg>